<svg width="142" height="142" viewBox="0 0 142 142" fill="none" xmlns="http://www.w3.org/2000/svg">
<path d="M78 54.1005H74C74 55.7184 74.9746 57.1769 76.4693 57.796C77.964 58.4151 79.6844 58.0729 80.8284 56.9289L78 54.1005ZM114.101 18L116.929 20.8284C118.073 19.6844 118.415 17.964 117.796 16.4693C117.177 14.9746 115.718 14 114.101 14V18ZM87.8995 64L85.0711 61.1716C83.9271 62.3156 83.5848 64.036 84.204 65.5307C84.8231 67.0254 86.2816 68 87.8995 68V64ZM124 27.8995H128C128 26.2816 127.025 24.8231 125.531 24.204C124.036 23.5849 122.316 23.9271 121.172 25.0711L124 27.8995ZM64 87.8995H68C68 86.2816 67.0254 84.8231 65.5307 84.204C64.036 83.5848 62.3156 83.9271 61.1716 85.0711L64 87.8995ZM27.8995 124L25.0711 121.172C23.9271 122.316 23.5849 124.036 24.204 125.531C24.8231 127.025 26.2816 128 27.8995 128V124ZM54.1005 78L56.9289 80.8284C58.0729 79.6844 58.4151 77.964 57.796 76.4693C57.1769 74.9746 55.7184 74 54.1005 74V78ZM18 114.101H14C14 115.718 14.9746 117.177 16.4693 117.796C17.964 118.415 19.6844 118.073 20.8284 116.929L18 114.101ZM111.272 15.1716L75.1716 51.2721L80.8284 56.9289L116.929 20.8284L111.272 15.1716ZM90.7279 66.8284L126.828 30.7279L121.172 25.0711L85.0711 61.1716L90.7279 66.8284ZM30.7279 126.828L66.8284 90.7279L61.1716 85.0711L25.0711 121.172L30.7279 126.828ZM51.2721 75.1716L15.1716 111.272L20.8284 116.929L56.9289 80.8284L51.2721 75.1716ZM11 0C4.92487 0 0 4.92487 0 11H8C8 9.34315 9.34315 8 11 8V0ZM131 0H11V8H131V0ZM142 11C142 4.92487 137.075 0 131 0V8C132.657 8 134 9.34315 134 11H142ZM142 131V11H134V131H142ZM131 142C137.075 142 142 137.075 142 131H134C134 132.657 132.657 134 131 134V142ZM11 142H131V134H11V142ZM0 131C0 137.075 4.92487 142 11 142V134C9.34315 134 8 132.657 8 131H0ZM0 11V131H8V11H0ZM100 89C93.9249 89 89 93.9249 89 100H97C97 98.3431 98.3431 97 100 97V89ZM102 89H100V97H102V89ZM113 100C113 93.9249 108.075 89 102 89V97C103.657 97 105 98.3431 105 100H113ZM113 102V100H105V102H113ZM102 113C108.075 113 113 108.075 113 102H105C105 103.657 103.657 105 102 105V113ZM100 113H102V105H100V113ZM89 102C89 108.075 93.9249 113 100 113V105C98.3431 105 97 103.657 97 102H89ZM89 100V102H97V100H89ZM60 59C60 59.5523 59.5523 60 59 60V68C63.9706 68 68 63.9706 68 59H60ZM120 59C120 59.5523 119.552 60 119 60V68C123.971 68 128 63.9706 128 59H120ZM60 29C60 29.5523 59.5523 30 59 30V38C63.9706 38 68 33.9706 68 29H60ZM60 119C60 119.552 59.5523 120 59 120V128C63.9706 128 68 123.971 68 119H60ZM120 119C120 119.552 119.552 120 119 120V128C123.971 128 128 123.971 128 119H120ZM119 82C119.552 82 120 82.4477 120 83H128C128 78.0294 123.971 74 119 74V82ZM82 23C82 22.4477 82.4477 22 83 22V14C78.0294 14 74 18.0294 74 23H82ZM82 83C82 82.4477 82.4477 82 83 82V74C78.0294 74 74 78.0294 74 83H82ZM83 120C82.4477 120 82 119.552 82 119H74C74 123.971 78.0294 128 83 128V120ZM22 83C22 82.4477 22.4477 82 23 82V74C18.0294 74 14 78.0294 14 83H22ZM23 60C22.4477 60 22 59.5523 22 59H14C14 63.9706 18.0294 68 23 68V60ZM23 30C22.4477 30 22 29.5523 22 29H14C14 33.9706 18.0294 38 23 38V30ZM22 23C22 22.4477 22.4477 22 23 22V14C18.0294 14 14 18.0294 14 23H22ZM59 22C59.5523 22 60 22.4477 60 23H68C68 18.0294 63.9706 14 59 14V22ZM59 52C59.5523 52 60 52.4477 60 53H68C68 48.0294 63.9706 44 59 44V52ZM22 53C22 52.4477 22.4477 52 23 52V44C18.0294 44 14 48.0294 14 53H22ZM23 52H59V44H23V52ZM22 59V53H14V59H22ZM23 68H59V60H23V68ZM68 59V53H60V59H68ZM14 23V29H22V23H14ZM23 22H59V14H23V22ZM60 23V29H68V23H60ZM59 30H23V38H59V30ZM23 82H54.1005V74H23V82ZM22 114.101V83H14V114.101H22ZM83 22H114.101V14H83V22ZM74 23V54.1005H82V23H74ZM87.8995 68H119V60H87.8995V68ZM128 59V27.8995H120V59H128ZM83 82H119V74H83V82ZM120 83V119H128V83H120ZM83 128H119V120H83V128ZM82 119V83H74V119H82ZM27.8995 128H59V120H27.8995V128ZM68 119V87.8995H60V119H68Z" fill="#AA33EE" style="mix-blend-mode:multiply"/>
</svg>
