<svg width="144" height="144" viewBox="0 0 144 144" fill="none" xmlns="http://www.w3.org/2000/svg">
<path d="M79 55.1005H75C75 56.7184 75.9746 58.1769 77.4693 58.796C78.964 59.4151 80.6844 59.0729 81.8284 57.9289L79 55.1005ZM115.101 19L117.929 21.8284C119.073 20.6844 119.415 18.964 118.796 17.4693C118.177 15.9746 116.718 15 115.101 15V19ZM88.8995 65L86.0711 62.1716C84.9271 63.3156 84.5848 65.036 85.204 66.5307C85.8231 68.0254 87.2816 69 88.8995 69V65ZM125 28.8995H129C129 27.2816 128.025 25.8231 126.531 25.204C125.036 24.5849 123.316 24.9271 122.172 26.0711L125 28.8995ZM65 88.8995H69C69 87.2816 68.0254 85.8231 66.5307 85.204C65.036 84.5848 63.3156 84.9271 62.1716 86.0711L65 88.8995ZM28.8995 125L26.0711 122.172C24.9271 123.316 24.5849 125.036 25.204 126.531C25.8231 128.025 27.2816 129 28.8995 129V125ZM55.1005 79L57.9289 81.8284C59.0729 80.6844 59.4151 78.964 58.796 77.4693C58.1769 75.9746 56.7184 75 55.1005 75V79ZM19 115.101H15C15 116.718 15.9746 118.177 17.4693 118.796C18.964 119.415 20.6844 119.073 21.8284 117.929L19 115.101ZM112.272 16.1716L76.1716 52.2721L81.8284 57.9289L117.929 21.8284L112.272 16.1716ZM91.7279 67.8284L127.828 31.7279L122.172 26.0711L86.0711 62.1716L91.7279 67.8284ZM31.7279 127.828L67.8284 91.7279L62.1716 86.0711L26.0711 122.172L31.7279 127.828ZM52.2721 76.1716L16.1716 112.272L21.8284 117.929L57.9289 81.8284L52.2721 76.1716ZM12 1C5.92487 1 1 5.92487 1 12H9C9 10.3431 10.3431 9 12 9V1ZM132 1H12V9H132V1ZM143 12C143 5.92487 138.075 1 132 1V9C133.657 9 135 10.3431 135 12H143ZM143 132V12H135V132H143ZM132 143C138.075 143 143 138.075 143 132H135C135 133.657 133.657 135 132 135V143ZM12 143H132V135H12V143ZM1 132C1 138.075 5.92487 143 12 143V135C10.3431 135 9 133.657 9 132H1ZM1 12V132H9V12H1ZM101 90C94.9249 90 90 94.9249 90 101H98C98 99.3431 99.3431 98 101 98V90ZM103 90H101V98H103V90ZM114 101C114 94.9249 109.075 90 103 90V98C104.657 98 106 99.3431 106 101H114ZM114 103V101H106V103H114ZM103 114C109.075 114 114 109.075 114 103H106C106 104.657 104.657 106 103 106V114ZM101 114H103V106H101V114ZM90 103C90 109.075 94.9249 114 101 114V106C99.3431 106 98 104.657 98 103H90ZM90 101V103H98V101H90ZM61 60C61 60.5523 60.5523 61 60 61V69C64.9706 69 69 64.9706 69 60H61ZM121 60C121 60.5523 120.552 61 120 61V69C124.971 69 129 64.9706 129 60H121ZM61 30C61 30.5523 60.5523 31 60 31V39C64.9706 39 69 34.9706 69 30H61ZM61 120C61 120.552 60.5523 121 60 121V129C64.9706 129 69 124.971 69 120H61ZM121 120C121 120.552 120.552 121 120 121V129C124.971 129 129 124.971 129 120H121ZM120 83C120.552 83 121 83.4477 121 84H129C129 79.0294 124.971 75 120 75V83ZM83 24C83 23.4477 83.4477 23 84 23V15C79.0294 15 75 19.0294 75 24H83ZM83 84C83 83.4477 83.4477 83 84 83V75C79.0294 75 75 79.0294 75 84H83ZM84 121C83.4477 121 83 120.552 83 120H75C75 124.971 79.0294 129 84 129V121ZM23 84C23 83.4477 23.4477 83 24 83V75C19.0294 75 15 79.0294 15 84H23ZM24 61C23.4477 61 23 60.5523 23 60H15C15 64.9706 19.0294 69 24 69V61ZM24 31C23.4477 31 23 30.5523 23 30H15C15 34.9706 19.0294 39 24 39V31ZM23 24C23 23.4477 23.4477 23 24 23V15C19.0294 15 15 19.0294 15 24H23ZM60 23C60.5523 23 61 23.4477 61 24H69C69 19.0294 64.9706 15 60 15V23ZM60 53C60.5523 53 61 53.4477 61 54H69C69 49.0294 64.9706 45 60 45V53ZM23 54C23 53.4477 23.4477 53 24 53V45C19.0294 45 15 49.0294 15 54H23ZM24 53H60V45H24V53ZM23 60V54H15V60H23ZM24 69H60V61H24V69ZM69 60V54H61V60H69ZM15 24V30H23V24H15ZM24 23H60V15H24V23ZM61 24V30H69V24H61ZM60 31H24V39H60V31ZM24 83H55.1005V75H24V83ZM23 115.101V84H15V115.101H23ZM84 23H115.101V15H84V23ZM75 24V55.1005H83V24H75ZM88.8995 69H120V61H88.8995V69ZM129 60V28.8995H121V60H129ZM84 83H120V75H84V83ZM121 84V120H129V84H121ZM84 129H120V121H84V129ZM83 120V84H75V120H83ZM28.8995 129H60V121H28.8995V129ZM69 120V88.8995H61V120H69Z" fill="#8833EE" style="mix-blend-mode:multiply"/>
</svg>
